<?xml version="1.0" encoding="utf-8"?>
<!-- Generator: Adobe Illustrator 15.1.0, SVG Export Plug-In . SVG Version: 6.00 Build 0)  -->
<!DOCTYPE svg PUBLIC "-//W3C//DTD SVG 1.1 Basic//EN" "http://www.w3.org/Graphics/SVG/1.1/DTD/svg11-basic.dtd">
<svg version="1.1" baseProfile="basic" id="Layer_1"
	 xmlns="http://www.w3.org/2000/svg" xmlns:xlink="http://www.w3.org/1999/xlink" x="0px" y="0px" width="512px" height="512px"
	 viewBox="0 0 512 512" xml:space="preserve">
<g>
	<path fill="#FFFFFF" d="M161.819,480.599C33.59,433.058-32.058,290.056,15.479,161.822C63.02,33.589,206.022-32.059,334.25,15.48
		c128.229,47.541,193.877,190.542,146.342,318.777C433.051,462.487,290.047,528.138,161.819,480.599z M320.914,51.448
		C212.52,11.261,91.633,66.755,51.444,175.155C11.26,283.56,66.756,404.444,175.155,444.63
		c108.394,40.188,229.281-15.307,269.47-123.707C484.809,212.52,429.312,91.635,320.914,51.448z"/>
</g>
<g>
	
		<polygon fill="#FFFFFF" stroke="#FFFFFF" stroke-width="14.3845" stroke-linecap="round" stroke-linejoin="round" stroke-miterlimit="10" points="
		243.213,101.173 104.993,252.292 160.26,252.92 158.692,298.896 311.545,171.021 	"/>
	
		<polygon fill="#FFFFFF" stroke="#FFFFFF" stroke-width="14.3845" stroke-linecap="round" stroke-linejoin="round" stroke-miterlimit="10" points="
		161.135,361.37 160.26,385.585 220.401,386.497 220.401,327.069 276.123,327.103 276.123,389.356 335.809,385.585 335.809,254.915 
		391.076,255.545 340.891,210.988 	"/>
	<polygon fill="#FFFFFF" points="67.266,381.515 91.877,410.933 155.727,358.263 155.727,308.255 	"/>
	<polygon fill="#FFFFFF" points="428.807,129.069 404.197,99.649 317.188,170.7 344.088,198.203 	"/>
</g>
</svg>
