<?xml version="1.0" encoding="utf-8"?>
<!-- Generator: Adobe Illustrator 15.1.0, SVG Export Plug-In . SVG Version: 6.00 Build 0)  -->
<!DOCTYPE svg PUBLIC "-//W3C//DTD SVG 1.1 Basic//EN" "http://www.w3.org/Graphics/SVG/1.1/DTD/svg11-basic.dtd">
<svg version="1.1" baseProfile="basic" id="Layer_1"
	 xmlns="http://www.w3.org/2000/svg" xmlns:xlink="http://www.w3.org/1999/xlink" x="0px" y="0px" width="512px" height="512px"
	 viewBox="0 0 512 512" xml:space="preserve">
<g>
	<path fill="#FFFFFF" d="M255.998,507.787c-139.1,0-252.27-113.169-252.27-252.26c0-139.106,113.169-252.275,252.27-252.275
		c139.1,0,252.27,113.169,252.27,252.275C508.268,394.618,395.098,507.787,255.998,507.787z M255.998,42.267
		c-117.587,0-213.254,95.67-213.254,213.26c0,117.584,95.667,213.251,213.254,213.251c117.593,0,213.254-95.667,213.254-213.251
		C469.252,137.937,373.591,42.267,255.998,42.267z"/>
</g>
<g>
	<path fill="#FFFFFF" d="M188.857,139.828l66.582,177.987h0.948l66.751-177.987h50.062v231.38h-38.613v-78.822l3.807-100.274
		l-0.949-0.154l-68.647,179.25h-25.914l-68.333-178.776l-0.949,0.157l3.818,99.797v78.822h-38.625v-231.38H188.857z"/>
</g>
</svg>
