<?xml version="1.0" encoding="utf-8"?>
<!-- Generator: Adobe Illustrator 15.1.0, SVG Export Plug-In . SVG Version: 6.00 Build 0)  -->
<!DOCTYPE svg PUBLIC "-//W3C//DTD SVG 1.1 Basic//EN" "http://www.w3.org/Graphics/SVG/1.1/DTD/svg11-basic.dtd">
<svg version="1.1" baseProfile="basic" id="Layer_1"
	 xmlns="http://www.w3.org/2000/svg" xmlns:xlink="http://www.w3.org/1999/xlink" x="0px" y="0px" width="512px" height="512px"
	 viewBox="0 0 512 512" xml:space="preserve">
<g>
	<path fill="#FFFFFF" d="M256.268,507.098c-138.333,0-250.885-112.547-250.885-250.874c0-138.339,112.552-250.888,250.885-250.888
		s250.879,112.549,250.879,250.888C507.147,394.551,394.602,507.098,256.268,507.098z M256.268,44.135
		c-116.945,0-212.083,95.149-212.083,212.088c0,116.945,95.138,212.077,212.083,212.077c116.939,0,212.077-95.132,212.077-212.077
		C468.345,139.284,373.207,44.135,256.268,44.135z"/>
</g>
<g>
	<path fill="#FFFFFF" d="M214.2,271.637c11.438,5.621,27.79,12.507,41.283,12.507c17.544,0,33.883-5.338,47.636-14.516
		c5.244-19.245,13.913-37.521,25.522-53.216c0,0,11.981-54.664,0-75.964c-11.993-21.306-42.735-40.335-73.159-40.335
		c-29.431,0-61.562,15.983-72.09,41.57c-10.529,25.583-0.537,74.838-0.537,74.838C198.203,234.635,206.848,248.264,214.2,271.637z
		 M290.571,167.794c9.926,0,17.986,8.051,17.986,17.987c0,9.924-8.061,17.973-17.986,17.973c-9.933,0-17.976-8.049-17.976-17.973
		C272.596,175.846,280.639,167.794,290.571,167.794z M255.376,215.918c11.686,12.43,13.458,29.614-2.031,27.497
		C237.844,241.311,255.376,215.918,255.376,215.918z M221.959,167.794c9.933,0,17.975,8.051,17.975,17.987
		c0,9.924-8.042,17.973-17.975,17.973c-9.927,0-17.981-8.049-17.981-17.973C203.978,175.846,212.033,167.794,221.959,167.794z"/>
	<path fill="#FFFFFF" d="M166.628,347.27c-2.592,0.721-3.425,3.962-14.231,1.039c-25.038-6.779-30.282,13.847-21.353,20.095
		c8.94,6.247,2.344,10.435,6.69,19.139c4.34,8.698,20.881,6.437,25.451-3.696c3.165-7.034,13.901-16.659,13.901-16.659
		l81.863-35.654l-27.825-12.407C205.118,330.604,168.305,346.802,166.628,347.27z"/>
	<path fill="#FFFFFF" d="M287.519,319.09l54.562-23.769c0,0,12.011-6.17,20.987-3.111c11.716,4.003,22.563-3.225,22.48-11.692
		c-0.053-4.807-3.041-11.763-7.941-14.545c-3.325-1.871-3.526-11.937-3.526-11.937c-5.828-10.98-22.847-6.688-24.618,0.46
		c-3.077,12.416-12.301,16.798-12.301,16.798l-78.213,35.501c4.464,1.961,7.204,3.165,7.204,3.165L287.519,319.09z"/>
	<path fill="#FFFFFF" d="M368.247,342.497c-11.237,6.106-20.697,2.251-20.697,2.251l-60.031-25.658l-28.569,12.442l74.18,33.062
		c0,0,12.667,4.7,16.457,13.393c4.962,11.35,17.61,14.479,23.805,8.692c3.52-3.271,6.631-10.181,5.373-15.678
		c-0.85-3.714,6.437-10.647,6.437-10.647C389.364,348.639,374.726,338.966,368.247,342.497z"/>
	<path fill="#FFFFFF" d="M258.949,306.795c-20.945-9.188-80.67-35.442-82.554-36.623c-2.28-1.436-5.226,0.142-10.363-9.814
		c-11.893-23.042-30.666-12.985-29.243-2.186c1.417,10.819-6.112,8.781-9.608,17.852c-3.49,9.076,9.336,19.753,19.901,16.292
		c7.328-2.409,21.671-0.985,21.671-0.985l62.37,27.795c14.368-6.342,25.439-11.243,25.439-11.243L258.949,306.795z"/>
	<path fill="#FFFFFF" stroke="#FFFFFF" stroke-width="1.0319" stroke-miterlimit="10" d="M266.153,309.96
		c0,0-2.74-1.204-7.204-3.165l-2.386,1.087c0,0-11.072,4.901-25.439,11.243l27.825,12.407l28.569-12.442L266.153,309.96z"/>
</g>
</svg>
