<?xml version="1.0" encoding="utf-8"?>
<!-- Generator: Adobe Illustrator 15.1.0, SVG Export Plug-In . SVG Version: 6.00 Build 0)  -->
<!DOCTYPE svg PUBLIC "-//W3C//DTD SVG 1.1 Basic//EN" "http://www.w3.org/Graphics/SVG/1.1/DTD/svg11-basic.dtd">
<svg version="1.1" baseProfile="basic" id="Layer_1"
	 xmlns="http://www.w3.org/2000/svg" xmlns:xlink="http://www.w3.org/1999/xlink" x="0px" y="0px" width="512px" height="512px"
	 viewBox="0 0 512 512" xml:space="preserve">
<g>
	<path fill="#FFFFFF" d="M256.256,506.13c-138.19,0-250.615-112.419-250.615-250.613c0-138.179,112.425-250.604,250.615-250.604
		c138.186,0,250.61,112.425,250.61,250.604C506.866,393.711,394.441,506.13,256.256,506.13z M256.256,43.672
		c-116.813,0-211.856,95.032-211.856,211.845c0,116.817,95.043,211.86,211.856,211.86c116.82,0,211.852-95.043,211.852-211.86
		C468.107,138.704,373.076,43.672,256.256,43.672z"/>
</g>
<g>
	
		<line fill="none" stroke="#FFFFFF" stroke-width="24.068" stroke-linecap="round" stroke-linejoin="round" stroke-miterlimit="10" x1="316.981" y1="144.229" x2="203.933" y2="143.419"/>
	
		<path fill="none" stroke="#FFFFFF" stroke-width="24.068" stroke-linecap="round" stroke-linejoin="round" stroke-miterlimit="10" d="
		M171.002,144.229h-0.798c-23.921,0-43.32,19.399-43.32,43.33V327.55c0,23.927,19.399,43.321,43.32,43.321h172.099
		c23.921,0,43.32-19.395,43.32-43.321V187.558c0-28.64-22.897-42.355-46.032-43.243"/>
	<g>
		<g>
			<g>
				<path fill="#FFFFFF" d="M189.83,194.835c-8.732,0-15.81-7.089-15.81-15.823v-61.136c0-8.734,7.077-15.82,15.81-15.82
					c8.73,0,15.82,7.086,15.82,15.82v61.136C205.65,187.746,198.561,194.835,189.83,194.835z"/>
				<path fill="#FFFFFF" d="M189.83,108.381c-5.233,0-9.483,4.256-9.483,9.495v61.136c0,5.239,4.25,9.498,9.483,9.498
					c5.238,0,9.494-4.259,9.494-9.498v-61.136C199.324,112.637,195.068,108.381,189.83,108.381z"/>
			</g>
		</g>
		<g>
			<g>
				<path fill="#FFFFFF" d="M322.678,194.835c-8.737,0-15.814-7.089-15.814-15.823v-61.136c0-8.734,7.077-15.82,15.814-15.82
					c8.73,0,15.814,7.086,15.814,15.82v61.136C338.492,187.746,331.408,194.835,322.678,194.835z"/>
			</g>
		</g>
	</g>
	<g>
		<path fill="#FFFFFF" d="M379.604,221.65l2.007-14.042h-252.72l6.019,120.347l12.039,36.093l114.315,4.013l95.62-1.027
			l18.785-14.917l8.287-43.646L379.604,221.65z M253.14,327.243c-1.978,3.862-4.638,7.084-7.968,9.64
			c-3.336,2.562-7.251,4.47-11.738,5.725c-4.492,1.26-9.258,1.885-14.276,1.885c-9.183,0-17.075-2.122-23.696-6.378
			c-6.62-4.25-10.992-10.969-13.113-20.146l22.897-5.36c0.769,3.672,2.342,6.574,4.706,8.696c2.371,2.128,5.875,3.192,10.507,3.192
			c4.735,0,8.24-1.237,10.513-3.701c2.267-2.463,3.405-5.626,3.405-9.494c0-2.897-0.606-5.141-1.815-6.73
			c-1.209-1.596-2.775-2.781-4.707-3.562c-1.932-0.769-4.111-1.226-6.522-1.376c-2.417-0.139-4.834-0.22-7.251-0.22h-5.07V280.58
			h7.105c2.024,0,4.002-0.145,5.939-0.434c1.931-0.289,3.694-0.844,5.29-1.665c1.597-0.821,2.874-1.978,3.84-3.481
			c0.966-1.491,1.451-3.457,1.451-5.862c0-3.1-1.231-5.658-3.694-7.688c-2.464-2.029-5.488-3.041-9.056-3.041
			c-3.389,0-6.187,0.916-8.407,2.755c-2.227,1.833-3.672,4.105-4.349,6.806l-23.915-4.923c1.162-4.444,2.902-8.237,5.221-11.374
			c2.319-3.143,5.071-5.678,8.258-7.612c3.191-1.932,6.742-3.356,10.65-4.273c3.915-0.919,8.043-1.376,12.392-1.376
			c4.545,0,8.917,0.555,13.114,1.666c4.203,1.11,7.898,2.851,11.09,5.218c3.187,2.365,5.725,5.337,7.604,8.914
			c1.891,3.571,2.827,7.826,2.827,12.75c0,5.701-1.498,10.576-4.492,14.635c-2.996,4.06-7.344,6.673-13.045,7.83v0.439
			c3.094,0.381,5.822,1.295,8.193,2.752c2.365,1.445,4.371,3.232,6.014,5.354c1.642,2.128,2.896,4.545,3.77,7.251
			c0.867,2.706,1.301,5.551,1.301,8.546C256.111,318.888,255.123,323.381,253.14,327.243z M318.867,342.752h-20.868v-78.264
			L277.42,282.61l-12.322-14.202l33.479-28.26h20.29V342.752z"/>
	</g>
</g>
</svg>
