<?xml version="1.0" encoding="utf-8"?>
<!-- Generator: Adobe Illustrator 15.1.0, SVG Export Plug-In . SVG Version: 6.00 Build 0)  -->
<!DOCTYPE svg PUBLIC "-//W3C//DTD SVG 1.1 Basic//EN" "http://www.w3.org/Graphics/SVG/1.1/DTD/svg11-basic.dtd">
<svg version="1.1" baseProfile="basic" id="Layer_1"
	 xmlns="http://www.w3.org/2000/svg" xmlns:xlink="http://www.w3.org/1999/xlink" x="0px" y="0px" width="512px" height="512px"
	 viewBox="0 0 512 512" xml:space="preserve">
<g>
	<path fill="#FFFFFF" d="M255.992,508.68c-139.102,0-252.271-113.176-252.271-252.274c0-139.102,113.17-252.269,252.271-252.269
		s252.271,113.167,252.271,252.269C508.264,395.504,395.094,508.68,255.992,508.68z M255.992,43.149
		c-117.588,0-213.256,95.667-213.256,213.256c0,117.592,95.667,213.254,213.256,213.254c117.589,0,213.256-95.662,213.256-213.254
		C469.248,138.817,373.581,43.149,255.992,43.149z"/>
</g>
<g>
	<g>
		<rect x="224.008" y="150.738" fill="#FFFFFF" width="63.98" height="211.333"/>
	</g>
	<g>
		<rect x="150.324" y="224.415" fill="#FFFFFF" width="211.336" height="63.983"/>
	</g>
</g>
</svg>
